<svg width="800" height="600" xmlns="http://www.w3.org/2000/svg" version="1.1">
 <g id="Layer_1">
  <title>Layer 1</title>
  <g id="svg_24">
   <line id="svg_10" y2="300" x2="400" y1="285" x1="400" stroke-width="0.8" stroke="#263238" fill="none"/>
   <line id="svg_11" y2="282.60609" x2="405.27203" y1="297.60609" x1="405.27203" stroke-width="0.8" stroke="#263238" fill="none"/>
   <line id="svg_14" y2="285.41893" x2="399.94559" y1="282.75299" x1="405.38629" stroke-width="0.8" stroke="#263238" fill="none"/>
   <line id="svg_15" y2="299.83678" x2="399.89119" y1="297.17084" x1="405.33188" stroke-width="0.8" stroke="#263238" fill="none"/>
  </g>
  <g id="svg_29">
   <line id="svg_25" y2="308.32427" x2="380.25027" y1="293.32427" x1="380.25027" stroke-width="0.8" stroke="#263238" fill="none"/>
   <line id="svg_26" y2="290.93036" x2="385.52231" y1="305.93036" x1="385.52231" stroke-width="0.8" stroke="#263238" fill="none"/>
   <line id="svg_27" y2="293.7432" x2="380.19587" y1="291.07726" x1="385.63656" stroke-width="0.8" stroke="#263238" fill="none"/>
   <line id="svg_28" y2="308.16104" x2="380.14146" y1="305.4951" x1="385.58215" stroke-width="0.8" stroke="#263238" fill="none"/>
  </g>
  <path id="svg_35" d="m382.99247,290.41981" opacity="NaN" stroke-width="0.8" stroke="#263238" fill="none"/>
  <path id="svg_39" d="m385.73735,291.1733l-0.32294,-0.64586l-0.48439,-0.64586l-0.10764,-0.48439l-0.05382,-0.53821l0,-0.64586l0.21529,-0.91496l0.37675,-0.43057l0.64586,-0.80732l0.80732,-0.26911l0.48439,-0.59203l0.59203,-0.43057l0.53821,-0.16146l0.86114,-0.10764l0.64586,-0.32293l0.59203,-0.21529c0.00001,0.00001 0.64587,-0.10764 0.69969,-0.10764c0.05382,0 0.69968,-0.05382 0.69967,-0.05383c0.00001,0.00001 0.96879,0.00001 0.96878,0c0.00001,0.00001 1.13026,0.00001 1.13025,0c0.00001,0.00001 0.69969,0.00001 0.69968,0c0.00001,0.00001 1.07644,0.10765 1.07643,0.10764c0.00001,0.00001 0.75351,0.10765 0.7535,0.10764c0.00001,0.00001 0.69969,0.32293 0.75351,0.32293c0.05382,0 0.91496,0.32293 0.91495,0.32292c0.00001,0.00001 0.69969,0.26911 0.69968,0.26911c0.00001,0.00001 0.69969,0.26911 0.69968,0.26911c0.00001,0.00001 0.59204,0.26911 0.59203,0.26911" opacity="NaN" stroke-width="0.8" stroke="#263238" fill="none"/>
  <path d="m397.63186,284.87622c0,-0.05383 0.05807,-0.04251 0.2153,-0.10764c0.11118,-0.04605 0.21527,-0.10767 0.2691,-0.10767c0.0538,0 0.16144,-0.0538 0.2691,-0.10764l0.0538,0l0,-0.05383" id="svg_42" stroke-width="0.8" stroke="#263238" fill="none"/>
  <path id="svg_43" d="m386.16792,305.54359l-0.32294,-0.64586l-0.48439,-0.64585l-0.10764,-0.4844l-0.05382,-0.53821l0,-0.64585l0.21528,-0.91497l0.37675,-0.43057l0.64586,-0.80732l0.80732,-0.2691l0.48439,-0.59204l0.59204,-0.43057l0.53821,-0.16146l0.86114,-0.10765l0.64585,-0.32292l0.59204,-0.21529c0.00001,0.00001 0.64586,-0.10763 0.69969,-0.10763c0.05382,0 0.69967,-0.05383 0.69966,-0.05383c0.00001,0 0.9688,0 0.96879,0c0.00001,0 1.13025,0 1.13024,0c0.00001,0 0.69969,0 0.69968,0c0.00001,0 1.07644,0.10765 1.07643,0.10764c0.00001,0.00001 0.75351,0.10765 0.7535,0.10764c0.00001,0.00001 0.69968,0.32294 0.7535,0.32294c0.05383,0 0.91497,0.32293 0.91496,0.32292c0.00001,0.00001 0.69968,0.26911 0.69967,0.26911c0.00001,0 0.69969,0.26911 0.69968,0.2691c0.00001,0.00001 0.59205,0.26912 0.59204,0.26911" opacity="NaN" stroke-width="0.8" stroke="#263238" fill="none"/>
  <path d="m397.95479,299.19269c0,-0.05384 0.05807,-0.04251 0.2153,-0.10764c0.11118,-0.04605 0.21527,-0.10766 0.26911,-0.10766c0.0538,0 0.16143,-0.05381 0.2691,-0.10764l0.0538,0l0,-0.05383" id="svg_44" stroke-width="0.8" stroke="#263238" fill="none"/>
  <path stroke="#263238" id="svg_45" d="m380.65696,294.24111l-0.54911,-1.36243l-0.82363,-1.36241l-0.18303,-1.02184l-0.09151,-1.13535l0,-1.36241l0.36605,-1.93012l0.64061,-0.90828l1.09819,-1.70303l1.37273,-0.56766l0.82363,-1.2489l1.00667,-0.90828l0.91514,-0.3406l1.46424,-0.22709l1.09817,-0.6812l1.00667,-0.45415c0.00002,0.00002 1.09819,-0.22704 1.18972,-0.22704c0.09151,0 1.18968,-0.11355 1.18967,-0.11355c0.00002,0 1.6473,0 1.64728,0c0.00002,0 1.92182,0 1.9218,0c0.00002,0 1.18972,0 1.1897,0c0.00002,0 1.83032,0.22709 1.83031,0.22707c0.00002,0.00002 1.28123,0.22709 1.28121,0.22707c0.00002,0.00002 1.1897,0.68124 1.28121,0.68124c0.09153,0 1.55577,0.68122 1.55575,0.6812c0.00002,0.00002 1.1897,0.56768 1.18968,0.56768c0.00002,0 1.18972,0.56768 1.1897,0.56766c0.00002,0.00002 1.00669,0.56771 1.00667,0.56768" opacity="NaN" stroke-width="0.8" fill="none"/>
  <line stroke="#263238" id="svg_46" y2="307.48116" x2="378.31001" y1="287.89021" x1="378.41765" stroke-width="0.8" fill="none"/>
  <line id="svg_48" y2="306.67384" x2="378.09473" y1="308.18084" x1="380.19376" stroke-width="0.8" stroke="#263238" fill="none"/>
 </g>
</svg>